<svg xmlns="http://www.w3.org/2000/svg" viewBox="0 0 496 496"><path d="M70.266 252.615l3.467 15.618-16.001 3.552-3.467-15.618z"/><path d="M448 233.232V192h-56v10.904l-88-47.664V92.752c0-3.672-.368-7.36-1.088-10.984l-8.8-43.96C289.736 15.896 270.344 0 248 0s-41.736 15.896-46.12 37.808l-8.8 43.968A56.916 56.916 0 0 0 192 92.752v62.488l-88 47.664V192H48v41.232l-48 26V304h16.688L192 273.512v63.336c0 19.536 2.992 38.824 8.6 57.488L120 451.88V496h16.984l89.768-22.448 7.48 22.448h27.528l7.48-22.448 88.816 22.208L376 496v-44.12l-80.6-57.552c5.608-18.664 8.6-37.944 8.6-57.488v-63.336l174.632 30.368L496 304v-44.768l-48-26zM64 208h24v3.568l-24 13V208zm128 17.576L86.264 249.072l3.472 15.624L192 241.976v15.296L16 287.88v-19.12l176-95.336v52.152zm-56 254.176V460.12l69.688-49.76 15.992 47.984L136 479.752zm114.232.248h-4.472l-28.32-84.976A183.66 183.66 0 0 1 208 336.84V92.752c0-2.624.256-5.264.776-7.84l8.8-43.96C220.464 26.496 233.256 16 248 16s27.536 10.496 30.432 24.944l8.8 43.952c.512 2.592.768 5.232.768 7.856v244.096c0 19.816-3.176 39.392-9.44 58.176L250.232 480zM360 460.12v19.632l-85.68-21.416 15.992-47.984L360 460.12zM408 208h24v16.568l-24-13V208zm72 79.88l-176-30.608v-15.296l102.264 22.728 3.472-15.624L304 225.584v-52.152l176 95.336v19.112z"/><path d="M425.761 252.618l16.002 3.555-3.47 15.62-16.002-3.556z"/></svg>