<svg xmlns="http://www.w3.org/2000/svg" viewBox="0 0 496 496"><path d="M144 224H32v112h112V224zm-16 96H48v-80h80v80zm16 32H32v112h112V352zm-16 96H48v-80h80v80zm144-224H160v112h112V224zm-16 96h-80v-80h80v80zm16 32H160v112h112V352zm-16 96h-80v-80h80v80z"/><path d="M80 304h16v-16h16v-16H96v-16H80v16H64v16h16zm112-32h48v16h-48zM69.656 437.656L88 419.312l18.344 18.344 11.312-11.312L99.312 408l18.344-18.344-11.312-11.312L88 396.688l-18.344-18.344-11.312 11.312L76.688 408l-18.344 18.344zM192 384h48v16h-48zm0 32h48v16h-48z"/><path d="M192 0v32h-32v64H0v400h304v-32h160v-32h32V0H192zm-16 48h208v16H192v32h-16V48zm112 432H16V208h272v272zm0-288H16v-80h272v80zm-80-96V80h176v32h32v112H304V96h-96zm192 0V59.312L436.688 96H400zm48 352H304v-16h96v-16h-96v-16h128v-16H304v-16h128v-16H304v-16h128v-16H304v-16h128v-16H304v-16h128v-16H304v-16h128V112h16v336zm32-32h-16V100.688L395.312 32H208V16h272v400z"/><path d="M416 416h16v16h-16z"/></svg>