<svg xmlns="http://www.w3.org/2000/svg" viewBox="0 0 496 496"><path d="M96 184c-13.232 0-24 10.768-24 24v128c0 13.232 10.768 24 24 24s24-10.768 24-24V208c0-13.232-10.768-24-24-24zm8 152c0 4.416-3.584 8-8 8s-8-3.584-8-8V208c0-4.416 3.584-8 8-8s8 3.584 8 8v128zm64-152c-13.232 0-24 10.768-24 24v128c0 13.232 10.768 24 24 24s24-10.768 24-24V208c0-13.232-10.768-24-24-24zm8 152c0 4.416-3.584 8-8 8s-8-3.584-8-8V208c0-4.416 3.584-8 8-8s8 3.584 8 8v128zm64-152c-13.232 0-24 10.768-24 24v128c0 13.232 10.768 24 24 24s24-10.768 24-24V208c0-13.232-10.768-24-24-24zm8 152c0 4.416-3.584 8-8 8s-8-3.584-8-8V208c0-4.416 3.584-8 8-8s8 3.584 8 8v128z"/><path d="M384 272c-.656 0-1.296.088-1.944.096l9.888-79.104.048-26.464C401.288 163.224 408 154.424 408 144c0-13.232-10.768-24-24-24H240V36c0-19.848-16.152-36-36-36s-36 16.152-36 36v84H24c-13.232 0-24 10.768-24 24 0 10.416 6.712 19.216 16 22.528V192l20.56 164.96C39.056 376.936 56.12 392 76.248 392H272.4c4.136 58.024 52.544 104 111.6 104 61.76 0 112-50.24 112-112s-50.24-112-112-112zM243.192 136H384c4.416 0 8 3.584 8 8s-3.584 8-8 8H243.192a39.963 39.963 0 0 0 0-16zM184 88h24V72h-24V56h24V40h-24v-4c0-11.032 8.968-20 20-20s20 8.968 20 20v73.568c-5.904-3.448-12.68-5.568-20-5.568s-14.096 2.12-20 5.568V88zm20 32c13.232 0 24 10.768 24 24s-10.768 24-24 24-24-10.768-24-24 10.768-24 24-24zM16 144c0-4.416 3.584-8 8-8h140.808a39.963 39.963 0 0 0 0 16H24c-4.416 0-8-3.584-8-8zm60.248 232c-12.08 0-22.312-9.04-23.808-21.024L32 191.504V168h140.208c7.312 9.656 18.784 16 31.792 16s24.488-6.344 31.792-16H376v23.504l-10.264 82.128A110.795 110.795 0 0 0 336 282.968V208c0-13.232-10.768-24-24-24s-24 10.768-24 24v118.608A111.059 111.059 0 0 0 272.408 376H76.248zM320 208v84.216a112.647 112.647 0 0 0-16 13.544V208c0-4.416 3.584-8 8-8s8 3.584 8 8zm64 272c-52.936 0-96-43.064-96-96s43.064-96 96-96 96 43.064 96 96-43.064 96-96 96z"/><path d="M392 320.408V304h-16v16.408c-17.952 2.016-32 17.112-32 35.592 0 19.848 16.152 36 36 36h8c11.032 0 20 8.968 20 20s-8.968 20-20 20h-8c-11.032 0-20-8.968-20-20v-4h-16v4c0 18.48 14.048 33.576 32 35.592V464h16v-16.408c17.952-2.016 32-17.112 32-35.592 0-19.848-16.152-36-36-36h-8c-11.032 0-20-8.968-20-20s8.968-20 20-20h8c11.032 0 20 8.968 20 20v4h16v-4c0-18.48-14.048-33.576-32-35.592zM440 376h16v16h-16zm-128 0h16v16h-16z"/></svg>