<svg xmlns="http://www.w3.org/2000/svg" viewBox="0 0 498.92 498.92"><path d="M73.46 256c13.232 0 24-10.768 24-24 0-6.52-2.632-12.432-6.872-16.76l32.784-72.12c1.96.52 3.976.88 6.088.88 4.016 0 7.744-1.08 11.072-2.832l45.328 38.856c-.216 1.296-.4 2.616-.4 3.976 0 13.232 10.768 24 24 24s24-10.768 24-24c0-3.912-1.032-7.56-2.696-10.824l56.96-63.288c2.984 1.336 6.264 2.112 9.736 2.112 13.232 0 24-10.768 24-24s-10.768-24-24-24-24 10.768-24 24c0 3.912 1.032 7.552 2.696 10.824l-56.96 63.288c-2.976-1.336-6.264-2.112-9.736-2.112-5.952 0-11.336 2.256-15.536 5.864l-42.432-36.376A23.88 23.88 0 0 0 153.46 120c0-13.232-10.768-24-24-24s-24 10.768-24 24c0 5.2 1.704 9.984 4.52 13.92l-33.8 74.36c-.904-.112-1.784-.28-2.72-.28-13.232 0-24 10.768-24 24s10.768 24 24 24zm224-176c4.408 0 8 3.584 8 8s-3.592 8-8 8c-4.408 0-8-3.584-8-8s3.592-8 8-8zm-88 96c4.408 0 8 3.584 8 8s-3.592 8-8 8-8-3.584-8-8 3.592-8 8-8zm-80-64c4.408 0 8 3.584 8 8s-3.592 8-8 8-8-3.584-8-8 3.592-8 8-8zm-56 112c4.408 0 8 3.584 8 8s-3.592 8-8 8-8-3.584-8-8 3.592-8 8-8zm232 16h16v16h-16zm-80 0h64v16h-64z"/><path d="M235.676 336l-6.4-16H369.46v-48h-16V48h16V0h-368v48h16v224h-16v48h140.28L74.012 493.088l14.896 5.832L158.916 320h18.544v176h16V320h18.584l13.416 33.544V496h272V336H235.676zM17.46 16h336v16h-336V16zm320 32v224h-304V48h304zm-320 256v-16h336v16h-336zm416 48h16v32h-16v-32zm-48 128h-144V352h144v128zm96 0h-80V352h16v48h48v-48h16v128z"/><path d="M353.46 448h16v16h-16zm-32 0h16v16h-16zm32-32h16v16h-16z"/></svg>