<svg xmlns="http://www.w3.org/2000/svg" viewBox="0 0 496 496"><path d="M495.52 112h-16V0h-128v112h-16v136h-49.128c5.624-7.112 9.128-15.968 9.128-25.72V120c0-12.592-5.968-23.712-15.096-31.048C294.248 80.52 303.52 65.344 303.52 48c0-26.472-21.528-48-48-48s-48 21.528-48 48c0 17.344 9.272 32.52 23.096 40.952-9.128 7.336-15.096 18.456-15.096 31.048v4.688L196.208 144H175.52c-14.064 0-25.632 10.464-27.592 24h-8.856c-5.552-9.52-15.76-16-27.552-16h-32v64h23.408l-6.856 96H79.52v24.384c-37.536 3.488-69.6 31.216-77.864 68.512L.48 410.248l15.176 10.12A56.785 56.785 0 0 0 15.52 424c0 39.704 32.296 72 72 72 33.832 0 62.824-23.656 70.152-56.064l16.68.064.728-7.192c.28-2.904.44-5.832.44-8.808h152c0 39.704 32.296 72 72 72s72-32.296 72-72h24v-24.76a150.85 150.85 0 0 0-7.768-47.832c-12.992-38.984-40.72-69.88-75.76-87.416h83.528V112zm-88-96h16v40h-16V16zm-40 0h24v56h48V16h24v96h-96V16zm56 112v40h-16v-40h16zm-200-80c0-17.648 14.352-32 32-32s32 14.352 32 32-14.352 32-32 32-32-14.352-32-32zm21.656 69.656l-10.088-10.088C239.312 100.664 246.848 96 255.52 96c13.232 0 24 10.768 24 24v72h-48v-4.816c.456-.424.936-.808 1.376-1.248l36.28-36.28-11.312-11.312-22.344 22.344L218.832 144l26.344-26.344zM263.52 288c22.056 0 40 17.944 40 40s-17.944 40-40 40h-40V264h30.28c.592 0 1.136-.152 1.72-.176V288h8zm-9.72-40h-30.28c-8.824 0-16 7.176-16 16v56h-24v-80c0-8.824 7.176-16 16-16h32v-16h48v14.28c0 14.184-11.536 25.72-25.72 25.72zm-46.28 88v32h-24v-32h24zm-32-176h27.312l4.688-4.688L224.208 172l-2.624 2.624c-6.048 6.048-14.088 9.376-22.632 9.376H175.52c-6.616 0-12-5.384-12-12s5.384-12 12-12zm-32 56v-32h6.808c4.512 9.424 14.064 16 25.192 16h23.432c5.752 0 11.328-1.056 16.568-2.984V208h-16c-17.648 0-32 14.352-32 32v128h-12.168c-5.64-6.816-12.304-12.728-19.72-17.6L143.52 216zm-48-16v-32h16c8.824 0 16 7.176 16 16s-7.176 16-16 16h-16zm0 128h15.448l8.072-112.984c3.032-.736 5.864-1.936 8.496-3.472v3.992L120.08 342.32a87.35 87.35 0 0 0-24.56-5.912V328zm-8 152c-30.872 0-56-25.128-56-56h23.208l.808.16C55.624 441.736 69.928 456 87.52 456c13.008 0 24.344-8.032 29.248-19.592l17.184 3.44 7.184.024C134.232 463.264 112.6 480 87.52 480zm-15.608-52.56l28.56 5.712C97.568 437.288 92.824 440 87.52 440c-7.64 0-14.024-5.392-15.608-12.56zm64.4-3.44l-79.216-15.84-31.152-.16-7.296-4.856c1.816-5.992 4.432-11.616 7.648-16.808L37.632 392h25.016l71.144 15.816 3.472-15.624-72-16L41.408 376l-5-2.504C49.632 360.168 67.896 352 87.52 352c39.704 0 72 32.296 72 72h-23.208zm263.208 56c-30.872 0-56-25.128-56-56h24c0 17.648 14.352 32 32 32s32-14.352 32-32h24c0 30.872-25.128 56-56 56zm-16-56h32c0 8.824-7.176 16-16 16s-16-7.176-16-16zm89.056-67.52c2.136 6.392 3.728 12.92 4.88 19.52H319.52v16h159.712c.128 2.408.288 4.816.288 7.24V408H173.992a87.197 87.197 0 0 0-8.184-24h97.712c30.872 0 56-25.128 56-56 0-28.168-20.896-51.536-48-55.432V264h72.76a135.07 135.07 0 0 1 128.296 92.48zM479.52 248h-128V128h40v56h48v-56h40v120z"/></svg>