<svg width="34" height="34" viewBox="0 0 34 34" fill="none" xmlns="http://www.w3.org/2000/svg">
<path d="M17 34C26.3888 34 34 26.3888 34 17C34 7.61116 26.3888 0 17 0C7.61116 0 0 7.61116 0 17C0 26.3888 7.61116 34 17 34Z" fill="#F0F0F0"/>
<path d="M3.51452 6.65005C2.17916 8.38744 1.17224 10.3899 0.585938 12.5653H9.42979L3.51452 6.65005Z" fill="#0052B4"/>
<path d="M33.4145 12.5653C32.8282 10.39 31.8212 8.3875 30.4859 6.65012L24.5708 12.5653H33.4145Z" fill="#0052B4"/>
<path d="M0.585938 21.4349C1.1723 23.6102 2.17922 25.6127 3.51452 27.35L9.42959 21.4349H0.585938Z" fill="#0052B4"/>
<path d="M27.3503 3.51428C25.6129 2.17892 23.6105 1.172 21.4351 0.585632V9.42942L27.3503 3.51428Z" fill="#0052B4"/>
<path d="M6.65039 30.4857C8.38778 31.8211 10.3903 32.828 12.5656 33.4144V24.5706L6.65039 30.4857Z" fill="#0052B4"/>
<path d="M12.5655 0.585632C10.3902 1.172 8.38771 2.17892 6.65039 3.51421L12.5655 9.42935V0.585632Z" fill="#0052B4"/>
<path d="M21.4351 33.4144C23.6104 32.828 25.6129 31.8211 27.3502 30.4858L21.4351 24.5706V33.4144Z" fill="#0052B4"/>
<path d="M24.5708 21.4349L30.4859 27.3501C31.8212 25.6128 32.8282 23.6102 33.4145 21.4349H24.5708Z" fill="#0052B4"/>
<path d="M33.8561 14.7826H19.2175H19.2174V0.143902C18.4916 0.0494063 17.7515 0 17 0C16.2483 0 15.5084 0.0494063 14.7826 0.143902V14.7825V14.7826H0.143902C0.0494063 15.5084 0 16.2485 0 17C0 17.7517 0.0494063 18.4916 0.143902 19.2174H14.7825H14.7826V33.8561C15.5084 33.9506 16.2483 34 17 34C17.7515 34 18.4916 33.9507 19.2174 33.8561V19.2175V19.2174H33.8561C33.9506 18.4916 34 17.7517 34 17C34 16.2485 33.9506 15.5084 33.8561 14.7826Z" fill="#D80027"/>
<path d="M21.4346 21.4349L29.0206 29.0209C29.3695 28.6721 29.7023 28.3075 30.0198 27.9295L23.5252 21.4348H21.4346V21.4349Z" fill="#D80027"/>
<path d="M12.565 21.4349H12.5649L4.979 29.0208C5.32777 29.3697 5.69241 29.7025 6.07039 30.0201L12.565 23.5253V21.4349Z" fill="#D80027"/>
<path d="M12.5652 12.5653V12.5652L4.97926 4.97913C4.63036 5.32789 4.29754 5.69253 3.97998 6.07051L10.4747 12.5653H12.5652V12.5653Z" fill="#D80027"/>
<path d="M21.4346 12.5653L29.0206 4.97923C28.6719 4.63033 28.3072 4.2975 27.9292 3.98001L21.4346 10.4747V12.5653Z" fill="#D80027"/>
</svg>
