<svg width="34" height="34" viewBox="0 0 34 34" fill="none" xmlns="http://www.w3.org/2000/svg">
<g clip-path="url(#clip0)">
<path d="M17 34C26.3888 34 34 26.3888 34 17C34 7.61116 26.3888 0 17 0C7.61116 0 0 7.61116 0 17C0 26.3888 7.61116 34 17 34Z" fill="#F0F0F0"/>
<path d="M32.9426 22.913C33.626 21.0714 34 19.0794 34 17C34 14.9205 33.626 12.9286 32.9426 11.087H1.05739C0.374066 12.9286 0 14.9205 0 17C0 19.0794 0.374066 21.0714 1.05739 22.913L17 24.3913L32.9426 22.913Z" fill="#0052B4"/>
<path d="M17.0002 34C24.3096 34 30.5409 29.3866 32.9428 22.913H1.05762C3.4596 29.3866 9.69083 34 17.0002 34Z" fill="#D80027"/>
</g>
<defs>
<clipPath id="clip0">
<rect width="34" height="34" fill="white"/>
</clipPath>
</defs>
</svg>
