<svg xmlns="http://www.w3.org/2000/svg" viewBox="0 0 496 496"><path d="M423.52 275.4c5.528-19.328 8.48-39.248 8.48-59.4C432 96.896 335.104 0 216 0S0 96.896 0 216s96.896 216 216 216c13.36 0 26.768-1.32 40-3.816V496h224V364.28l16 10.664V323.72l-72.48-48.32zM193.192 17.344c-17.12 16.464-42.976 45.52-62.528 85.672-26.216-12.16-40.848-27.816-47.368-36.464 29.976-26.648 67.984-44.424 109.896-49.208zM136 160c0 8.824-7.176 16-16 16s-16-7.176-16-16 7.176-16 16-16 16 7.176 16 16zM71.752 77.68c8.208 10.44 24.592 26.984 52.344 39.856-1.424 3.4-2.728 6.936-4.04 10.472-.016 0-.04-.008-.056-.008-17.648 0-32 14.352-32 32 0 12.48 7.248 23.192 17.688 28.464A253.354 253.354 0 0 0 104.28 208H16.2c2-50.472 22.792-96.168 55.552-130.32zm.04 276.68C39.008 320.208 18.2 274.496 16.2 224h87.992c1.072 34.112 8.816 64.512 19.776 90.76-27.584 12.84-43.944 29.264-52.176 39.6zM83.4 365.544c6.64-8.536 21.392-24.08 47.208-36.2 19.456 39.88 45.312 68.848 62.48 85.304-41.824-4.792-79.744-22.528-109.688-49.104zM208 406.552c-15.608-14.576-42.352-43.208-62.28-83.424 1.208-.432 2.536-.8 3.784-1.208C155.264 330.408 164.992 336 176 336c14.776 0 27.128-10.12 30.792-23.76.408-.016.8-.048 1.208-.064v94.376zM160 304c0-8.824 7.176-16 16-16s16 7.176 16 16-7.176 16-16 16-16-7.176-16-16zm48-7.832c-.36.016-.712.024-1.072.04C203.432 282.336 190.944 272 176 272c-17.648 0-32 14.352-32 32 0 .96.2 1.864.28 2.8-1.768.576-3.576 1.128-5.272 1.744-10.352-24.6-17.72-52.944-18.808-84.544H208v72.168zM208 208h-87.72a235.66 235.66 0 0 1 1.136-16.144C138.392 191.096 152 177.16 152 160c0-11.968-6.68-22.296-16.432-27.784 1.096-2.904 2.176-5.832 3.36-8.64 18.64 6.672 41.456 11.344 69.072 12.136V208zm0-88.272c-24.976-.76-45.576-4.872-62.392-10.72C165.544 68.736 192.352 40.08 208 25.496v94.232zm152.192-42.112c32.8 34.16 53.608 79.88 55.608 130.384h-87.992a253.54 253.54 0 0 0-12.952-72.52c1.68.272 3.384.52 5.144.52 17.648 0 32-14.352 32-32 0-5-1.248-9.672-3.304-13.888 4.888-4.648 8.648-8.912 11.496-12.496zM415.688 224c-.568 14.232-2.6 28.304-6.16 42.072L368 238.384l-45.8 30.536c3.216-14.848 5.008-29.864 5.496-44.92h87.992zM304 104c0-8.824 7.176-16 16-16s16 7.176 16 16-7.176 16-16 16-16-7.176-16-16zm44.616-37.528c-2.36 3.072-5.728 7.016-10.256 11.392C333.152 74.2 326.84 72 320 72c-11.328 0-21.248 5.96-26.936 14.864C275 55.072 253.72 31.552 238.912 17.352c41.832 4.792 79.768 22.536 109.704 49.12zM224 25.448c15.6 14.568 42.32 43.168 62.24 83.336-18.664 6.528-39.512 10.184-62.24 10.88V25.448zm0 110.384c25.152-.72 48.312-4.816 69.04-12.248 10.328 24.568 17.672 52.864 18.76 84.416H224v-72.168zM224 224h87.696a235.595 235.595 0 0 1-9.384 58.176l-30.344 20.232c-15.104-3.6-31.168-5.664-47.968-6.168V224zm32 187.856c-5.728 1.168-11.48 2.16-17.264 2.824A308.705 308.705 0 0 0 256 396.576v15.28zm0-40.4c-11.992 15.448-23.6 27.288-32 35.112V312.24c10.024.32 19.744 1.224 29.128 2.728L240 323.72v51.224l16-10.664v7.176zM400 480h-64v-96h64v96zm64 0h-48V368h-96v112h-48V353.616l96-64 96 64V480zm16-134.944l-112-74.672-112 74.672V332.28l112-74.664 112 74.664v12.776z"/></svg>