<svg width="36" height="36" viewBox="0 0 36 36" fill="none" xmlns="http://www.w3.org/2000/svg">
<circle cx="18" cy="18" r="18" fill="white"/>
<g clip-path="url(#clip0)">
<path d="M1.80272 12.8261C1.28196 14.4576 0.999934 16.1956 1 17.9998C0.999934 19.8041 1.28203 21.5422 1.80279 23.1737L18 23.9129L34.1972 23.1738C34.7179 21.5423 35.0001 19.8041 35.0001 17.9999C35 16.1957 34.718 14.4576 34.1972 12.826L18 12.0869L1.80272 12.8261Z" fill="#F0F0F0"/>
<path d="M34.1972 12.8263L17.9999 12.0872L1.80265 12.8263C1.64833 13.31 1.51545 13.8032 1.40408 14.3045H34.5955C34.4843 13.8031 34.3515 13.3098 34.1972 12.8263Z" fill="#D80027"/>
<path d="M1.4043 21.6956C1.51553 22.1969 1.64841 22.6901 1.80273 23.1738L1.80433 23.1738L17.9999 23.9129L34.1971 23.1738C34.3514 22.6901 34.4843 22.1969 34.5956 21.6956H1.4043Z" fill="#D80027"/>
<path d="M17.9999 34.9999C25.5846 34.9999 32.0081 30.0325 34.1972 23.1738H1.8028C3.99188 30.0325 10.4155 34.9999 17.9999 34.9999Z" fill="#6DA544"/>
<path d="M17.9999 1C10.4154 1.00007 3.99195 5.96745 1.80273 12.8261L34.1971 12.8262C32.0081 5.96739 25.5846 0.999934 17.9999 1Z" fill="#338AF3"/>
<path d="M8.76859 8.02182C8.76859 6.4296 9.8876 5.09948 11.3819 4.77316C11.1523 4.72296 10.914 4.6958 10.6692 4.6958C8.83227 4.6958 7.34311 6.18489 7.34311 8.02189C7.34311 9.85889 8.83214 11.348 10.6692 11.348C10.914 11.348 11.1522 11.3208 11.3819 11.2706C9.88766 10.9442 8.76859 9.61405 8.76859 8.02182Z" fill="#F0F0F0"/>
<path d="M13.3478 9.53369L13.573 10.2266H14.3016L13.7121 10.655L13.9373 11.3479L13.3478 10.9197L12.7583 11.3479L12.9835 10.655L12.394 10.2266H13.1226L13.3478 9.53369Z" fill="#F0F0F0"/>
<path d="M15.6734 9.53369L15.8986 10.2266H16.6272L16.0377 10.655L16.2629 11.3479L15.6734 10.9197L15.0839 11.3479L15.3091 10.655L14.7197 10.2266H15.4482L15.6734 9.53369Z" fill="#F0F0F0"/>
<path d="M17.999 9.53369L18.2241 10.2266H18.9528L18.3633 10.655L18.5884 11.3479L17.999 10.9197L17.4094 11.3479L17.6347 10.655L17.0451 10.2266H17.7738L17.999 9.53369Z" fill="#F0F0F0"/>
<path d="M20.3246 9.53369L20.5498 10.2266H21.2783L20.6889 10.655L20.9141 11.3479L20.3246 10.9197L19.735 11.3479L19.9603 10.655L19.3707 10.2266H20.0993L20.3246 9.53369Z" fill="#F0F0F0"/>
<path d="M22.6501 9.53369L22.8753 10.2266H23.6039L23.0145 10.655L23.2397 11.3479L22.6501 10.9197L22.0606 11.3479L22.2858 10.655L21.6964 10.2266H22.425L22.6501 9.53369Z" fill="#F0F0F0"/>
<path d="M15.6734 7.1145L15.8986 7.80738H16.6272L16.0377 8.23577L16.2629 8.92865L15.6734 8.5004L15.0839 8.92865L15.3091 8.23577L14.7197 7.80738H15.4482L15.6734 7.1145Z" fill="#F0F0F0"/>
<path d="M17.999 7.1145L18.2241 7.80738H18.9528L18.3633 8.23577L18.5884 8.92865L17.999 8.5004L17.4094 8.92865L17.6347 8.23577L17.0451 7.80738H17.7738L17.999 7.1145Z" fill="#F0F0F0"/>
<path d="M20.3246 7.1145L20.5498 7.80738H21.2783L20.6889 8.23577L20.9141 8.92865L20.3246 8.5004L19.735 8.92865L19.9603 8.23577L19.3707 7.80738H20.0993L20.3246 7.1145Z" fill="#F0F0F0"/>
<path d="M22.6501 7.1145L22.8753 7.80738H23.6039L23.0145 8.23577L23.2397 8.92865L22.6501 8.5004L22.0606 8.92865L22.2858 8.23577L21.6964 7.80738H22.425L22.6501 7.1145Z" fill="#F0F0F0"/>
<path d="M17.999 4.69556L18.2241 5.38857H18.9528L18.3633 5.81683L18.5884 6.50984L17.999 6.08159L17.4094 6.50984L17.6347 5.81683L17.0451 5.38857H17.7738L17.999 4.69556Z" fill="#F0F0F0"/>
<path d="M20.3246 4.69556L20.5498 5.38857H21.2783L20.6889 5.81683L20.9141 6.50984L20.3246 6.08159L19.735 6.50984L19.9603 5.81683L19.3707 5.38857H20.0993L20.3246 4.69556Z" fill="#F0F0F0"/>
<path d="M22.6501 4.69556L22.8753 5.38857H23.6039L23.0145 5.81683L23.2397 6.50984L22.6501 6.08159L22.0606 6.50984L22.2858 5.81683L21.6964 5.38857H22.425L22.6501 4.69556Z" fill="#F0F0F0"/>
</g>
<defs>
<clipPath id="clip0">
<rect width="34" height="34" fill="white" transform="translate(1 1)"/>
</clipPath>
</defs>
</svg>
