<svg xmlns="http://www.w3.org/2000/svg" viewBox="0 0 512 512"><path d="M486.4 424.96c-50.93-27.008-89.996-42.152-124.772-47.958l3.599-4.948c1.707-1.707 2.56-4.267 1.707-6.827l-7.997-31.987a179.809 179.809 0 0 0 8.193-12.688c31.8-10.823 47.881-29.118 50.583-56.054 13.968-.728 26.02-13.195 26.02-27.271v-64c0-14.012-11.147-26.429-25.75-27.26C416.104 96.671 394.368 0 256 0 117.629 0 95.895 96.675 94.016 145.97c-13.853.818-25.749 12.449-25.749 27.256v64c0 14.507 12.8 27.307 28.16 27.307h12.8c4.704 0 9.225-1.352 13.163-3.666 4.839 25.685 15.518 50.948 30.674 72.372l-7.997 31.987c0 1.707 0 4.267 1.707 6.827l3.599 4.948c-34.776 5.807-73.842 20.95-124.772 47.958C9.387 432.64 0 448.853 0 466.773v36.693C0 508.587 3.413 512 8.533 512h494.933c5.12 0 8.533-3.413 8.533-8.533v-36.693c.001-17.067-10.239-33.281-25.599-41.814zm-230.353-19.519l20.433 46.826h-41.245l20.812-46.826zm-27.012 63.892h53.897l4.995 25.6h-64.013l5.121-25.6zM345.6 349.867l3.413 15.36-8.717 11.969a7.615 7.615 0 0 0-1.523 1.684l-35.495 49.147-11.262 15.464-23.005-51.761c28.058-3.422 53.044-17.722 73.077-38.212a155.996 155.996 0 0 0 3.512-3.651zm33.321-53.083c4.813-11.711 8.441-23.884 10.735-36.154a26.813 26.813 0 0 0 10.936 3.729c-1.479 12.062-6.838 23.45-21.671 32.425zm46.892-124.411v64c0 5.12-4.267 10.24-10.24 10.24h-12.8c-5.12 0-10.24-4.267-10.24-10.24v-64c0-5.12 4.267-10.24 10.24-10.24h12.8c5.12 0 10.24 4.267 10.24 10.24zM256 17.067c52.597 0 141.118 17.17 144.924 128.992a27.134 27.134 0 0 0-10.099 3.124C380.441 84.202 323.787 34.133 256 34.133c-67.778 0-124.426 50.055-134.821 115.022a26.794 26.794 0 0 0-10.104-3.099C114.883 34.237 203.404 17.067 256 17.067zM118.613 236.373c0 5.12-4.267 10.24-10.24 10.24h-12.8c-5.12 0-10.24-4.267-10.24-10.24v-64c0-5.12 4.267-10.24 10.24-10.24h12.8c5.12 0 10.24 4.267 10.24 10.24v64zm17.92-65.706C136.533 104.96 190.293 51.2 256 51.2s119.467 53.76 119.467 119.467V230.4c0 28.232-7.35 54.079-19.266 75.887-20.368 5.908-49.669 9.446-91.667 9.446-5.12 0-8.533 3.413-8.533 8.533s3.413 8.533 8.533 8.533c30.745 0 56.458-1.888 77.515-5.835l-1.569 1.569c-4.293 5.724-8.824 10.943-13.558 15.649-20.093 18.719-44.058 30.058-67.152 31.181-1.162-.499-2.465-.75-3.77-.75-1.312 0-2.494.257-3.554.761-14.136-.648-28.603-5.129-42.316-12.793-13.893-7.982-26.962-19.489-38.61-34.048l-2.56-2.56-.498-.166c-19.164-25.134-31.929-58.199-31.929-95.407v-59.733zM242.988 391.73l-23.005 51.761-11.262-15.464-35.495-49.147a14.853 14.853 0 0 0-.884-.806l-9.356-12.847 3.413-15.36a155.865 155.865 0 0 0 3.509 3.649c20.034 20.49 45.022 34.791 73.08 38.214zM17.067 466.773c0-11.093 5.973-21.333 16.213-26.453 54.393-28.896 93.548-43.399 128.428-47.731l50.922 70.018-6.465 32.326H17.067v-28.16zm477.866 28.16H305.835l-6.465-32.326 51.474-70.777c34.757 5.245 74.615 19.737 127.877 47.636 10.24 5.973 16.213 16.213 16.213 27.307v28.16z"/></svg>