<svg xmlns="http://www.w3.org/2000/svg" width="612.002" height="612.002" viewBox="0 0 612.002 612.002"><path d="M571.771 123.555c25.121-33.626 40.157-68.538 40.23-93.48-.031-8.077-1.651-14.389-4.733-19.091a15.254 15.254 0 0 0-2.779-3.563c-1.558-1.546-2.958-2.372-3.261-2.539-4.932-3.292-11.274-4.88-19.353-4.88-24.88.042-59.802 15.068-93.438 40.23-27.188 20.345-54.378 48.997-92.017 88.673a6179.276 6179.276 0 0 1-20.21 21.223l-72.905-21.85.219-.209c3.03-3.062 4.755-7.273 4.713-11.411a16.252 16.252 0 0 0-4.765-11.609l-13.166-13.187a16.396 16.396 0 0 0-11.588-4.817c-4.389 0-8.485 1.693-11.547 4.786l-19.697 19.708-10.429-3.114c2.247-2.853 3.49-6.416 3.448-9.927.042-4.431-1.672-8.558-4.754-11.62L222.51 73.649c-3.02-3.03-7.2-4.765-11.588-4.765-4.368 0-8.454 1.704-11.484 4.786l-18.077 18.067-74.128-22.205a18.55 18.55 0 0 0-5.298-.752c-5.266.063-10.146 2.017-13.709 5.549L62.165 100.4c-2.958 2.957-4.619 6.959-4.587 10.752-.094 5.59 2.999 10.752 7.952 13.406l155.884 87.085c.763.428 2.968 2.059 3.783 2.874l44.441 44.431c-41.568 43.793-78.601 86.208-107.461 123.104a683.234 683.234 0 0 0-7.754 10.084L33.827 381.185a16.328 16.328 0 0 0-2.08-.126c-5.528.115-10.93 2.3-14.942 6.176L4.652 399.377c-2.999 2.937-4.692 6.907-4.65 10.742-.094 5.852 3.448 11.264 8.767 13.636l84.838 40.293c.731.366 2.633 1.714 3.25 2.33l7.043 6.991c-2.205 6.207-3.323 11.588-3.386 16.312-.021 6.321 2.017 11.734 5.915 15.632l.303.262.083.062c4.002 3.877 9.185 5.852 15.601 5.852 4.619-.073 9.948-1.17 16.176-3.364l7.147 7.137c.554.585 1.881 2.445 2.226 3.187l40.209 84.651c2.456 5.402 7.753 8.902 13.521 8.902h.083c3.992 0 7.806-1.599 10.721-4.524l12.445-12.487c3.688-3.887 5.862-9.247 5.945-14.9 0-.689-.031-1.223-.052-1.516L219.855 457.54a800.258 800.258 0 0 0 10.083-7.722c36.949-28.903 79.374-65.968 123.083-107.473l44.473 44.515c.721.689 2.403 2.895 2.895 3.814l86.918 155.602c2.654 5.026 7.764 8.13 13.428 8.13 4.044 0 7.889-1.599 10.836-4.566l26.248-26.229c3.407-3.562 5.319-8.401 5.371-13.688 0-1.776-.25-3.5-.71-5.12l-22.205-74.149 18.066-18.098c3.041-3.021 4.766-7.221 4.766-11.536 0-4.337-1.683-8.412-4.744-11.516l-13.25-13.239c-3.03-3.041-7.221-4.775-11.536-4.775-3.657 0-7.23 1.223-10.021 3.428l-3.104-10.387 19.718-19.718c3.03-3.041 4.755-7.242 4.755-11.568 0-4.357-1.683-8.442-4.755-11.504l-13.188-13.188c-3.041-3.083-7.262-4.828-11.599-4.828-4.357 0-8.579 1.766-11.557 4.807l-.136.125-21.84-72.895c7.545-7.189 14.702-14.034 21.547-20.481 39.535-37.515 68.082-64.6 88.374-91.726z"/></svg>