<svg xmlns="http://www.w3.org/2000/svg" viewBox="0 0 512 512"><path d="M467.786 352.977c-11.423 0-20.682 9.259-20.682 20.682v70.595c0 14.547-11.835 26.381-26.381 26.381H91.278c-14.547 0-26.381-11.835-26.381-26.381v-70.595c0-11.423-9.26-20.682-20.682-20.682-11.422 0-20.682 9.259-20.682 20.682v70.595c0 37.355 30.391 67.746 67.746 67.746h329.445c37.356 0 67.746-30.391 67.746-67.746v-70.595c-.002-11.423-9.261-20.682-20.684-20.682z"/><path d="M364.752 241.375c-8.077-8.077-21.172-8.077-29.249 0L256 320.878l-79.502-79.503c-8.077-8.076-21.173-8.077-29.249 0-8.077 8.077-8.077 21.172 0 29.249l94.127 94.127a20.683 20.683 0 0 0 29.25 0l94.127-94.127c8.075-8.076 8.075-21.172-.001-29.249z"/><path d="M256 0c-11.423 0-20.682 9.26-20.682 20.682v329.445c0 11.423 9.26 20.682 20.682 20.682 11.423 0 20.682-9.259 20.682-20.682V20.682C276.682 9.26 267.423 0 256 0z"/></svg>